PathFileType	4	(X/Y/Z)	D:\TRACE\v60_Jaco2_6-2-23\BothDRS_Motion3_4-platform.trc
DataRate	CameraRate	NumFrames	NumMarkers	Units	OrigDataRate	OrigDataStartFrame	OrigNumFrames
100.00	100.00	      60	5	mm	100.00	4376	      7000
Frame#	Time	Left_Front			Right_Front			Left_Aft			Right_Aft			Post			
		X1	Y1	Z1	X2	Y2	Z2	X3	Y3	Z3	X4	Y4	Z4	X5	Y5	Z5	

4376	43.750	-768.79498	10.54974	-650.38586	801.64227	9.20418	-627.79712	-699.74377	11.18343	485.97134	714.59399	8.02170	588.95233	26.58414	1308.61011	-961.91254	
4377	43.760	-769.06610	11.54858	-650.10828	801.25006	10.06774	-627.49689	-700.34686	10.49290	486.23846	714.17950	7.27349	589.10651	25.94273	1310.04529	-960.00555	
4378	43.770	-769.97211	12.50242	-649.84283	800.99609	11.04865	-627.20642	-700.66248	10.07575	486.49915	713.74805	6.40814	589.30029	25.86674	1311.65808	-957.76282	
4379	43.780	-770.35468	13.50089	-650.03436	800.75299	11.90358	-626.94196	-700.79694	9.43697	486.68439	713.41040	5.60238	589.59357	25.27440	1312.74121	-955.79517	
4380	43.790	-770.57562	14.63147	-649.59149	800.27380	13.00663	-626.83630	-701.16223	8.67202	486.70963	713.10461	5.07343	589.78296	25.03483	1314.13867	-953.58966	
4381	43.800	-770.68494	15.46294	-649.49847	800.04816	13.84393	-626.65552	-701.33624	7.88221	486.98712	712.83984	4.01273	589.90887	24.22680	1315.38757	-951.29694	
4382	43.810	-770.93707	16.02782	-649.33954	799.49957	14.71233	-626.44324	-701.84241	7.28433	487.28076	712.38000	3.23986	590.15253	24.29537	1316.62671	-949.49133	
4383	43.820	-771.32446	17.19694	-649.07581	799.18365	15.54811	-626.22693	-702.34491	6.80585	487.41745	712.20361	2.71059	590.39508	23.78863	1318.07410	-947.49438	
4384	43.830	-771.15607	18.08828	-648.40747	798.85980	16.54025	-625.98651	-702.54053	6.33623	487.56357	711.85608	1.82358	590.62488	23.66992	1319.24768	-945.75073	
4385	43.840	-772.01886	18.95090	-648.43085	798.44757	17.43771	-625.84216	-702.99091	5.40486	487.67398	711.09839	1.07092	590.93597	22.92538	1320.69788	-943.75171	
4386	43.850	-772.36804	19.78726	-648.18317	798.51752	18.19829	-626.01917	-703.11041	4.88510	487.89072	711.41913	0.53112	591.05505	22.89071	1321.82727	-941.88873	
4387	43.860	-772.40204	20.66812	-647.89001	797.99524	19.05467	-625.39337	-703.16571	4.14181	488.26477	711.18842	-0.20561	591.15082	22.53571	1323.36169	-939.73016	
4388	43.870	-772.76538	21.66674	-647.96075	797.85730	19.93162	-625.11969	-703.54858	3.86699	488.42993	710.64117	-1.05505	591.43842	22.42749	1324.22083	-938.09381	
4389	43.880	-772.96484	22.52102	-647.73706	797.42969	20.77087	-624.95264	-703.68719	3.17100	488.74625	710.44653	-1.61746	591.55109	21.98217	1325.63953	-936.09430	
4390	43.890	-773.16614	23.27430	-647.37732	797.22101	21.62972	-624.77686	-704.20947	2.67281	488.82126	710.29858	-2.15654	591.73279	21.67689	1326.72424	-934.28412	
4391	43.900	-773.53412	23.78158	-647.31976	796.99628	22.40005	-624.59711	-704.33014	1.94968	489.06631	709.86182	-3.00528	591.97699	21.13401	1327.96875	-932.20245	
4392	43.910	-773.93115	24.48783	-647.31586	796.84192	22.95824	-624.35779	-704.45746	1.49527	489.19128	709.71375	-3.59325	592.06952	21.26708	1328.87451	-930.68274	
4393	43.920	-773.90332	25.68578	-647.17670	796.70508	23.77908	-624.16095	-704.65112	1.02841	489.32693	709.58203	-3.96982	592.17871	20.90441	1329.95630	-928.75067	
4394	43.930	-774.13983	26.52704	-646.90808	796.51587	24.44303	-624.11084	-704.83624	0.57129	489.45349	709.58569	-4.36577	592.31738	21.08239	1330.64832	-927.09680	
4395	43.940	-774.60260	26.98448	-646.52472	796.15710	25.05691	-623.92377	-704.98950	0.14090	489.66138	709.21796	-5.34416	592.57391	20.82143	1331.91797	-925.69366	
4396	43.950	-774.63568	27.29539	-646.49158	796.08722	25.70971	-623.74127	-705.33118	-0.26522	489.75104	708.83545	-5.89061	592.72485	20.67443	1332.74048	-924.30060	
4397	43.960	-774.52142	27.94816	-645.82660	796.00049	26.32695	-623.53693	-705.42535	-1.00012	489.81754	708.69836	-6.19781	592.89191	20.36850	1333.77893	-923.12500	
4398	43.970	-774.77887	28.95263	-645.96423	795.91162	26.85100	-623.24469	-705.53583	-1.38262	489.89282	708.85034	-6.74832	593.02686	19.96080	1334.73254	-921.90015	
4399	43.980	-774.95355	29.64439	-645.88538	795.72089	27.60501	-623.14191	-705.62048	-1.62441	490.00687	708.44647	-7.40357	593.35278	19.71048	1335.63013	-920.58667	
4400	43.990	-774.98413	30.19338	-645.68774	795.70239	28.32674	-622.89716	-705.63782	-2.33589	490.23282	708.69727	-8.37111	593.40045	19.79642	1336.81299	-919.23193	
4401	44.000	-774.93579	30.80389	-645.47791	795.62134	28.96595	-622.64252	-705.69489	-2.77865	490.39508	708.64362	-8.75114	593.43646	19.72355	1337.31018	-918.01782	
4402	44.010	-774.64581	31.33395	-645.15851	795.48438	29.35983	-622.63470	-705.72247	-3.33262	490.72461	708.63043	-8.78396	593.46918	19.68519	1338.15210	-916.47955	
4403	44.020	-774.91583	31.81519	-645.29047	795.43329	29.81946	-622.50696	-705.67078	-3.79535	490.78464	708.55292	-9.06601	593.69452	19.61748	1338.92834	-915.29810	
4404	44.030	-774.96021	31.98400	-645.26996	795.42029	30.41113	-622.38196	-705.79535	-3.82610	490.86099	708.28931	-9.54295	593.23724	19.94655	1339.57849	-913.72705	
4405	44.040	-774.98907	32.25754	-645.13507	795.34167	30.65388	-622.29010	-705.79700	-4.00777	490.95642	708.32733	-9.84153	593.68628	19.65676	1340.01855	-912.41718	
4406	44.050	-775.00092	32.84291	-644.81128	795.37231	31.07047	-622.13098	-705.85236	-4.37409	490.97763	708.35168	-10.29658	593.76715	19.84106	1340.64331	-911.62659	
4407	44.060	-775.10974	33.40418	-644.68317	795.32843	31.55976	-621.97363	-705.68909	-4.79795	491.14706	708.18884	-10.66326	593.89264	19.92635	1341.53284	-910.44641	
4408	44.070	-775.11322	33.89773	-644.69421	795.30298	31.97766	-621.93604	-705.83929	-5.20211	491.15988	708.06165	-11.11108	594.01416	19.52813	1341.92346	-909.52960	
4409	44.080	-775.05072	34.34618	-644.70837	795.29700	32.37487	-621.80359	-705.98877	-5.52531	491.21490	708.17694	-11.37393	594.09991	19.38751	1342.22083	-908.95715	
4410	44.090	-775.05505	34.76066	-644.61108	795.30145	32.71724	-621.72760	-705.99774	-5.83953	491.36667	708.20679	-11.64945	594.17468	19.24964	1342.91309	-908.26318	
4411	44.100	-775.15637	35.14900	-644.35400	795.25110	33.20638	-621.66425	-705.98798	-6.05473	491.55008	708.24054	-11.89525	594.28381	19.31769	1343.47278	-907.62518	
4412	44.110	-775.14685	35.52227	-644.09534	795.27002	33.61259	-621.43585	-705.93457	-6.22495	491.62091	708.32159	-12.18462	594.43140	19.31400	1344.04834	-907.22833	
4413	44.120	-775.22125	35.76417	-643.97723	795.20508	34.02261	-621.30658	-705.87146	-6.36336	491.63922	708.21851	-12.50495	594.56409	19.34089	1344.63611	-906.61066	
4414	44.130	-775.18469	35.61937	-644.20325	795.37695	34.25181	-621.30597	-705.89471	-6.46384	491.67963	708.09021	-12.85746	594.55908	19.47385	1345.04492	-906.21869	
4415	44.140	-775.19403	36.19838	-643.82935	795.34448	34.42695	-621.25708	-705.87610	-6.64615	491.69897	708.01123	-13.11690	594.63336	19.21276	1345.41296	-905.26813	
4416	44.150	-775.19055	36.42902	-643.77075	795.35339	34.67124	-621.19836	-705.76074	-6.87522	491.80884	708.06006	-13.32158	594.69086	19.18780	1345.74670	-904.48608	
4417	44.160	-774.88391	36.66865	-643.65631	795.44427	34.92476	-621.14374	-705.59448	-7.12755	491.90811	708.21216	-13.57876	594.78271	19.51070	1346.20862	-903.59357	
4418	44.170	-774.75049	37.10914	-643.72205	795.68640	35.10529	-621.10724	-705.29108	-7.38403	492.00348	708.47797	-13.72302	594.80182	19.68285	1346.40125	-902.93103	
4419	44.180	-774.62921	37.30280	-643.68896	796.01343	35.35576	-620.95386	-705.03284	-7.54850	492.08929	708.55621	-13.88288	594.76563	19.77452	1346.55298	-902.28131	
4420	44.190	-774.48798	37.58654	-643.63831	796.25122	35.56626	-620.74213	-705.19037	-7.79718	492.03778	708.76819	-13.99826	594.82666	20.06007	1346.75928	-901.56091	
4421	44.200	-774.28528	37.52580	-643.93182	796.40350	35.62458	-620.66241	-704.98389	-7.86353	492.09424	708.95038	-14.13785	594.87164	20.34218	1346.85376	-901.02826	
4422	44.210	-774.10028	37.87255	-643.89117	796.52637	35.72380	-620.65765	-704.87579	-7.94848	492.10626	709.16870	-14.32808	594.91101	20.61454	1347.11755	-900.68506	
4423	44.220	-773.95514	37.99873	-643.90100	796.68481	35.93365	-620.62732	-704.71008	-7.99638	492.09830	709.34369	-14.40900	594.99969	20.76097	1347.40942	-900.50854	
4424	44.230	-773.98749	38.11637	-643.85059	796.81244	36.06801	-620.61188	-704.55823	-8.08150	492.09006	709.48529	-14.55081	595.04285	20.86395	1347.62512	-900.69037	
4425	44.240	-773.81213	38.22366	-643.87689	797.01520	36.16796	-620.59772	-704.42090	-8.13983	492.06943	709.71997	-14.65839	595.09393	21.13211	1347.85791	-900.84906	
4426	44.250	-773.55914	38.33017	-643.81726	797.23828	36.30439	-620.58759	-704.18384	-8.22450	492.17914	709.89276	-14.74564	595.07562	21.42314	1347.98779	-900.95184	
4427	44.260	-773.15106	38.49231	-643.63446	797.45319	36.38539	-620.51276	-703.78326	-8.42937	492.36639	710.11163	-14.75683	595.10126	21.55556	1348.15259	-900.95508	
4428	44.270	-772.86566	38.55603	-643.44312	797.62427	36.44355	-620.49005	-703.70563	-8.13113	492.28296	710.40796	-14.77703	595.10889	21.77068	1348.18494	-900.90686	
4429	44.280	-772.68011	38.75338	-643.32574	797.80328	36.49410	-620.48615	-703.51947	-8.04518	492.26828	710.52338	-14.78318	595.10400	21.88065	1348.25696	-900.78638	
4430	44.290	-772.49133	38.83876	-643.19812	798.03662	36.54623	-620.52924	-703.36041	-8.07748	492.24152	710.65436	-14.83809	595.14038	22.13119	1348.33203	-900.42218	
4431	44.300	-772.30560	38.87609	-643.04193	798.22705	36.54256	-620.51227	-703.25238	-8.09767	492.19492	710.84741	-14.88432	595.15710	22.27022	1348.28833	-900.08905	
4432	44.310	-772.12628	38.84525	-643.03528	798.49817	36.69194	-620.49939	-703.05969	-8.13661	492.10101	711.14069	-14.94581	595.16150	22.36722	1348.27527	-899.91620	
4433	44.320	-771.98352	38.82652	-643.10846	798.72211	36.80556	-620.46338	-702.76001	-8.12319	492.04056	711.17438	-15.00001	595.31024	22.54396	1348.19373	-899.64221	
4434	44.330	-771.65350	38.68181	-643.21759	799.12268	36.68890	-620.47821	-702.38177	-8.19437	492.00812	712.01056	-15.08977	595.00708	22.78461	1348.10669	-899.52325	
4435	44.340	-771.30585	38.28708	-643.42938	799.38702	36.54772	-620.48682	-702.08624	-8.16742	492.03632	712.25952	-14.86230	595.19495	23.09974	1348.05554	-899.53143	
